<mxfile host="app.diagrams.net" modified="2022-04-29T12:15:56.733Z" agent="5.0 (Windows NT 10.0; Win64; x64) AppleWebKit/537.36 (KHTML, like Gecko) Chrome/100.0.4896.127 Safari/537.36 Edg/100.0.1185.50" etag="sDiPUQyAdDkcOanv2i4D" version="17.4.6" type="github">
  <diagram id="voN35_qYD7FyNKMXWkaO" name="Page-1">
    <mxGraphModel dx="1038" dy="579" grid="1" gridSize="10" guides="1" tooltips="1" connect="1" arrows="1" fold="1" page="1" pageScale="1" pageWidth="850" pageHeight="1100" math="0" shadow="0">
      <root>
        <mxCell id="0" />
        <mxCell id="1" parent="0" />
        <mxCell id="qCc1VwGCMg4JUNKRTjqO-3" value="" style="edgeStyle=orthogonalEdgeStyle;rounded=0;orthogonalLoop=1;jettySize=auto;html=1;" edge="1" parent="1" source="qCc1VwGCMg4JUNKRTjqO-1" target="qCc1VwGCMg4JUNKRTjqO-2">
          <mxGeometry relative="1" as="geometry" />
        </mxCell>
        <mxCell id="qCc1VwGCMg4JUNKRTjqO-1" value="start" style="rounded=1;whiteSpace=wrap;html=1;" vertex="1" parent="1">
          <mxGeometry x="80" y="30" width="90" height="20" as="geometry" />
        </mxCell>
        <mxCell id="qCc1VwGCMg4JUNKRTjqO-5" value="" style="edgeStyle=orthogonalEdgeStyle;rounded=0;orthogonalLoop=1;jettySize=auto;html=1;" edge="1" parent="1" source="qCc1VwGCMg4JUNKRTjqO-2" target="qCc1VwGCMg4JUNKRTjqO-4">
          <mxGeometry relative="1" as="geometry" />
        </mxCell>
        <mxCell id="qCc1VwGCMg4JUNKRTjqO-2" value="set the locked sight rng as locked attack range" style="rounded=0;whiteSpace=wrap;html=1;" vertex="1" parent="1">
          <mxGeometry x="65" y="100" width="120" height="60" as="geometry" />
        </mxCell>
        <mxCell id="qCc1VwGCMg4JUNKRTjqO-7" value="" style="edgeStyle=orthogonalEdgeStyle;rounded=0;orthogonalLoop=1;jettySize=auto;html=1;" edge="1" parent="1" source="qCc1VwGCMg4JUNKRTjqO-4" target="qCc1VwGCMg4JUNKRTjqO-6">
          <mxGeometry relative="1" as="geometry" />
        </mxCell>
        <mxCell id="qCc1VwGCMg4JUNKRTjqO-4" value="call&amp;nbsp;getAgentPosition for get target position" style="rounded=1;whiteSpace=wrap;html=1;fillColor=#ffcc99;strokeColor=#36393d;" vertex="1" parent="1">
          <mxGeometry x="65" y="200" width="120" height="60" as="geometry" />
        </mxCell>
        <mxCell id="qCc1VwGCMg4JUNKRTjqO-9" style="edgeStyle=orthogonalEdgeStyle;rounded=0;orthogonalLoop=1;jettySize=auto;html=1;entryX=0;entryY=0.5;entryDx=0;entryDy=0;" edge="1" parent="1" source="qCc1VwGCMg4JUNKRTjqO-6" target="qCc1VwGCMg4JUNKRTjqO-8">
          <mxGeometry relative="1" as="geometry" />
        </mxCell>
        <mxCell id="qCc1VwGCMg4JUNKRTjqO-6" value="FOR pop grp family" style="rhombus;whiteSpace=wrap;html=1;" vertex="1" parent="1">
          <mxGeometry x="85" y="290" width="80" height="80" as="geometry" />
        </mxCell>
        <mxCell id="qCc1VwGCMg4JUNKRTjqO-11" value="" style="edgeStyle=orthogonalEdgeStyle;rounded=0;orthogonalLoop=1;jettySize=auto;html=1;" edge="1" parent="1" source="qCc1VwGCMg4JUNKRTjqO-8" target="qCc1VwGCMg4JUNKRTjqO-10">
          <mxGeometry relative="1" as="geometry" />
        </mxCell>
        <mxCell id="qCc1VwGCMg4JUNKRTjqO-8" value="call&amp;nbsp;getAgentPosition for get pop position" style="rounded=1;whiteSpace=wrap;html=1;fillColor=#ffcc99;strokeColor=#36393d;" vertex="1" parent="1">
          <mxGeometry x="240" y="30" width="120" height="60" as="geometry" />
        </mxCell>
        <mxCell id="qCc1VwGCMg4JUNKRTjqO-13" value="" style="edgeStyle=orthogonalEdgeStyle;rounded=0;orthogonalLoop=1;jettySize=auto;html=1;" edge="1" parent="1" source="qCc1VwGCMg4JUNKRTjqO-10" target="qCc1VwGCMg4JUNKRTjqO-12">
          <mxGeometry relative="1" as="geometry" />
        </mxCell>
        <mxCell id="qCc1VwGCMg4JUNKRTjqO-10" value="call&amp;nbsp;angleBetween&lt;br&gt;TwoPoints" style="rounded=1;whiteSpace=wrap;html=1;fillColor=#f8cecc;gradientColor=#ea6b66;strokeColor=#b85450;" vertex="1" parent="1">
          <mxGeometry x="240" y="130" width="120" height="60" as="geometry" />
        </mxCell>
        <mxCell id="qCc1VwGCMg4JUNKRTjqO-14" style="edgeStyle=orthogonalEdgeStyle;rounded=0;orthogonalLoop=1;jettySize=auto;html=1;entryX=0;entryY=0.5;entryDx=0;entryDy=0;" edge="1" parent="1" source="qCc1VwGCMg4JUNKRTjqO-12" target="qCc1VwGCMg4JUNKRTjqO-6">
          <mxGeometry relative="1" as="geometry">
            <Array as="points">
              <mxPoint x="300" y="380" />
              <mxPoint x="65" y="380" />
              <mxPoint x="65" y="330" />
            </Array>
          </mxGeometry>
        </mxCell>
        <mxCell id="qCc1VwGCMg4JUNKRTjqO-15" value="next pop" style="edgeLabel;html=1;align=center;verticalAlign=middle;resizable=0;points=[];" vertex="1" connectable="0" parent="qCc1VwGCMg4JUNKRTjqO-14">
          <mxGeometry x="-0.041" y="1" relative="1" as="geometry">
            <mxPoint as="offset" />
          </mxGeometry>
        </mxCell>
        <mxCell id="qCc1VwGCMg4JUNKRTjqO-17" style="edgeStyle=orthogonalEdgeStyle;rounded=0;orthogonalLoop=1;jettySize=auto;html=1;entryX=0.5;entryY=0;entryDx=0;entryDy=0;" edge="1" parent="1" source="qCc1VwGCMg4JUNKRTjqO-12" target="qCc1VwGCMg4JUNKRTjqO-16">
          <mxGeometry relative="1" as="geometry">
            <Array as="points">
              <mxPoint x="300" y="310" />
              <mxPoint x="385" y="310" />
              <mxPoint x="385" y="20" />
              <mxPoint x="470" y="20" />
            </Array>
          </mxGeometry>
        </mxCell>
        <mxCell id="qCc1VwGCMg4JUNKRTjqO-12" value="set the agent max speed" style="rounded=1;whiteSpace=wrap;html=1;fillColor=#ffcc99;strokeColor=#36393d;" vertex="1" parent="1">
          <mxGeometry x="240" y="220" width="120" height="60" as="geometry" />
        </mxCell>
        <mxCell id="qCc1VwGCMg4JUNKRTjqO-19" value="" style="edgeStyle=orthogonalEdgeStyle;rounded=0;orthogonalLoop=1;jettySize=auto;html=1;" edge="1" parent="1" source="qCc1VwGCMg4JUNKRTjqO-16" target="qCc1VwGCMg4JUNKRTjqO-18">
          <mxGeometry relative="1" as="geometry" />
        </mxCell>
        <mxCell id="qCc1VwGCMg4JUNKRTjqO-16" value="construct the pop stop anim req object" style="rounded=0;whiteSpace=wrap;html=1;" vertex="1" parent="1">
          <mxGeometry x="410" y="40" width="120" height="60" as="geometry" />
        </mxCell>
        <mxCell id="qCc1VwGCMg4JUNKRTjqO-21" value="" style="edgeStyle=orthogonalEdgeStyle;rounded=0;orthogonalLoop=1;jettySize=auto;html=1;" edge="1" parent="1" source="qCc1VwGCMg4JUNKRTjqO-18" target="qCc1VwGCMg4JUNKRTjqO-20">
          <mxGeometry relative="1" as="geometry" />
        </mxCell>
        <mxCell id="qCc1VwGCMg4JUNKRTjqO-18" value="call set animation for set anim" style="rounded=1;whiteSpace=wrap;html=1;fillColor=#f8cecc;gradientColor=#ea6b66;strokeColor=#b85450;" vertex="1" parent="1">
          <mxGeometry x="410" y="140" width="120" height="60" as="geometry" />
        </mxCell>
        <mxCell id="qCc1VwGCMg4JUNKRTjqO-23" value="" style="edgeStyle=orthogonalEdgeStyle;rounded=0;orthogonalLoop=1;jettySize=auto;html=1;" edge="1" parent="1" source="qCc1VwGCMg4JUNKRTjqO-20" target="qCc1VwGCMg4JUNKRTjqO-22">
          <mxGeometry relative="1" as="geometry" />
        </mxCell>
        <mxCell id="qCc1VwGCMg4JUNKRTjqO-20" value="IF pop has not target id" style="rhombus;whiteSpace=wrap;html=1;" vertex="1" parent="1">
          <mxGeometry x="430" y="230" width="80" height="80" as="geometry" />
        </mxCell>
        <mxCell id="qCc1VwGCMg4JUNKRTjqO-25" value="" style="edgeStyle=orthogonalEdgeStyle;rounded=0;orthogonalLoop=1;jettySize=auto;html=1;" edge="1" parent="1" source="qCc1VwGCMg4JUNKRTjqO-22" target="qCc1VwGCMg4JUNKRTjqO-24">
          <mxGeometry relative="1" as="geometry" />
        </mxCell>
        <mxCell id="qCc1VwGCMg4JUNKRTjqO-22" value="store the target and clone the visited card array" style="whiteSpace=wrap;html=1;" vertex="1" parent="1">
          <mxGeometry x="410" y="340" width="120" height="60" as="geometry" />
        </mxCell>
        <mxCell id="qCc1VwGCMg4JUNKRTjqO-24" value="end" style="ellipse;whiteSpace=wrap;html=1;" vertex="1" parent="1">
          <mxGeometry x="410" y="430" width="120" height="30" as="geometry" />
        </mxCell>
      </root>
    </mxGraphModel>
  </diagram>
</mxfile>
